ffmpeg version 2021-09-22-git-447cf53774-essentials_build-www.gyan.dev Copyright (c) 2000-2021 the FFmpeg developers
  built with gcc 10.3.0 (Rev5, Built by MSYS2 project)
  configuration: --enable-gpl --enable-version3 --enable-static --disable-w32threads --disable-autodetect --enable-fontconfig --enable-iconv --enable-gnutls --enable-libxml2 --enable-gmp --enable-lzma --enable-zlib --enable-libsrt --enable-libssh --enable-libzmq --enable-avisynth --enable-sdl2 --enable-libwebp --enable-libx264 --enable-libx265 --enable-libxvid --enable-libaom --enable-libopenjpeg --enable-libvpx --enable-libass --enable-libfreetype --enable-libfribidi --enable-libvidstab --enable-libvmaf --enable-libzimg --enable-amf --enable-cuda-llvm --enable-cuvid --enable-ffnvcodec --enable-nvdec --enable-nvenc --enable-d3d11va --enable-dxva2 --enable-libmfx --enable-libgme --enable-libopenmpt --enable-libopencore-amrwb --enable-libmp3lame --enable-libtheora --enable-libvo-amrwbenc --enable-libgsm --enable-libopencore-amrnb --enable-libopus --enable-libspeex --enable-libvorbis --enable-librubberband
  libavutil      57.  6.100 / 57.  6.100
  libavcodec     59.  9.100 / 59.  9.100
  libavformat    59.  5.100 / 59.  5.100
  libavdevice    59.  0.101 / 59.  0.101
  libavfilter     8.  9.100 /  8.  9.100
  libswscale      6.  1.100 /  6.  1.100
  libswresample   4.  0.100 /  4.  0.100
  libpostproc    56.  0.100 / 56.  0.100
Splitting the commandline.
Reading option '-v' ... matched as option 'v' (set logging level) with argument 'debug'.
Reading option '-nostdin' ... matched as option 'stdin' (enable or disable interaction on standard input) with argument 0.
Reading option '-progress' ... matched as option 'progress' (write program-readable progress information) with argument 'C:/Users/USER/AppData/Local/Temp/KritaFFmpegProgress.hpxOfN'.
Reading option '-r' ... matched as option 'r' (set frame rate (Hz value, fraction or abbreviation)) with argument '8'.
Reading option '-start_number' ... matched as AVOption 'start_number' with argument '0'.
Reading option '-i' ... matched as input url with argument 'C:/Users/USER/Desktop/Dibujines/Game Jam Shit/Sprites/Run/frame%04d.png'.
Reading option '-vf' ... matched as option 'vf' (set video filters) with argument 'palettegen'.
Reading option '-y' ... matched as option 'y' (overwrite output files) with argument '1'.
Reading option 'C:/Users/USER/Desktop/Dibujines/Game Jam Shit/Sprites/Run/palette.png' ... matched as output url.
Finished splitting the commandline.
Parsing a group of options: global .
Applying option v (set logging level) with argument debug.
Applying option nostdin (enable or disable interaction on standard input) with argument 0.
Applying option progress (write program-readable progress information) with argument C:/Users/USER/AppData/Local/Temp/KritaFFmpegProgress.hpxOfN.
[file @ 000001ce7f8fd580] Setting default whitelist 'file,crypto,data'
Applying option y (overwrite output files) with argument 1.
Successfully parsed a group of options.
Parsing a group of options: input url C:/Users/USER/Desktop/Dibujines/Game Jam Shit/Sprites/Run/frame%04d.png.
Applying option r (set frame rate (Hz value, fraction or abbreviation)) with argument 8.
Successfully parsed a group of options.
Opening an input file: C:/Users/USER/Desktop/Dibujines/Game Jam Shit/Sprites/Run/frame%04d.png.
[image2 @ 000001ce7f93da80] Opening 'C:/Users/USER/Desktop/Dibujines/Game Jam Shit/Sprites/Run/frame0000.png' for reading
[file @ 000001ce7f940cc0] Setting default whitelist 'file,crypto,data'
[AVIOContext @ 000001ce7f948e00] Statistics: 3011 bytes read, 0 seeks
[image2 @ 000001ce7f93da80] Opening 'C:/Users/USER/Desktop/Dibujines/Game Jam Shit/Sprites/Run/frame0001.png' for reading
[file @ 000001ce7f940d80] Setting default whitelist 'file,crypto,data'
[AVIOContext @ 000001ce7f940e80] Statistics: 2789 bytes read, 0 seeks
[image2 @ 000001ce7f93da80] Opening 'C:/Users/USER/Desktop/Dibujines/Game Jam Shit/Sprites/Run/frame0002.png' for reading
[file @ 000001ce7f940e40] Setting default whitelist 'file,crypto,data'
[AVIOContext @ 000001ce7f941c40] Statistics: 2791 bytes read, 0 seeks
[image2 @ 000001ce7f93da80] Opening 'C:/Users/USER/Desktop/Dibujines/Game Jam Shit/Sprites/Run/frame0003.png' for reading
[file @ 000001ce7f940e40] Setting default whitelist 'file,crypto,data'
[AVIOContext @ 000001ce7f942980] Statistics: 2789 bytes read, 0 seeks
Input #0, image2, from 'C:/Users/USER/Desktop/Dibujines/Game Jam Shit/Sprites/Run/frame%04d.png':
  Duration: 00:00:00.16, start: 0.000000, bitrate: N/A
  Stream #0:0, 4, 1/25: Video: png, 1 reference frame, rgba(pc), 240x135 [SAR 11811:11811 DAR 16:9], 0/1, 25 fps, 25 tbr, 25 tbn
Successfully opened the file.
Parsing a group of options: output url C:/Users/USER/Desktop/Dibujines/Game Jam Shit/Sprites/Run/palette.png.
Applying option vf (set video filters) with argument palettegen.
Successfully parsed a group of options.
Opening an output file: C:/Users/USER/Desktop/Dibujines/Game Jam Shit/Sprites/Run/palette.png.
Successfully opened the file.
detected 8 logical cores
Stream mapping:
  Stream #0:0 -> #0:0 (png (native) -> png (native))
cur_dts is invalid st:0 (0) [init:0 i_done:0 finish:0] (this is harmless if it occurs once at the start per stream)
    Last message repeated 4 times
[graph 0 input from stream 0:0 @ 000001ce7fa8c040] Setting 'video_size' to value '240x135'
[graph 0 input from stream 0:0 @ 000001ce7fa8c040] Setting 'pix_fmt' to value '26'
[graph 0 input from stream 0:0 @ 000001ce7fa8c040] Setting 'time_base' to value '1/8'
[graph 0 input from stream 0:0 @ 000001ce7fa8c040] Setting 'pixel_aspect' to value '11811/11811'
[graph 0 input from stream 0:0 @ 000001ce7fa8c040] Setting 'frame_rate' to value '8/1'
[graph 0 input from stream 0:0 @ 000001ce7fa8c040] w:240 h:135 pixfmt:rgba tb:1/8 fr:8/1 sar:11811/11811
[format @ 000001ce7fa8c400] Setting 'pix_fmts' to value 'rgb24|rgba|rgb48be|rgba64be|pal8|gray|ya8|gray16be|ya16be|monob'
[auto_scale_0 @ 000001ce7fa8cc40] w:iw h:ih flags:'' interl:0
[Parsed_palettegen_0 @ 000001ce7f1e75c0] auto-inserting filter 'auto_scale_0' between the filter 'graph 0 input from stream 0:0' and the filter 'Parsed_palettegen_0'
[auto_scale_1 @ 000001ce7f9e5380] w:iw h:ih flags:'' interl:0
[format @ 000001ce7fa8c400] auto-inserting filter 'auto_scale_1' between the filter 'Parsed_palettegen_0' and the filter 'format'
[AVFilterGraph @ 000001ce7fa09a40] query_formats: 4 queried, 3 merged, 2 already done, 0 delayed
[auto_scale_1 @ 000001ce7f9e5380] picking rgba out of 10 ref:bgra alpha:1
[swscaler @ 000001ce7fa8d000] [swscaler @ 000001ce7fa99fc0] Forcing full internal H chroma due to input having non subsampled chroma
[swscaler @ 000001ce7fa8d000] [swscaler @ 000001ce7faa6f80] Forcing full internal H chroma due to input having non subsampled chroma
[swscaler @ 000001ce7fa8d000] [swscaler @ 000001ce7fabae80] Forcing full internal H chroma due to input having non subsampled chroma
[swscaler @ 000001ce7fa8d000] [swscaler @ 000001ce7facef80] Forcing full internal H chroma due to input having non subsampled chroma
[swscaler @ 000001ce7fa8d000] [swscaler @ 000001ce7fae5240] Forcing full internal H chroma due to input having non subsampled chroma
[swscaler @ 000001ce7fa8d000] [swscaler @ 000001ce7fafaf00] Forcing full internal H chroma due to input having non subsampled chroma
[swscaler @ 000001ce7fa8d000] [swscaler @ 000001ce7fb176c0] Forcing full internal H chroma due to input having non subsampled chroma
[swscaler @ 000001ce7fa8d000] [swscaler @ 000001ce7fb2c000] Forcing full internal H chroma due to input having non subsampled chroma
[swscaler @ 000001ce7fa8d000] [swscaler @ 000001ce7fb44fc0] Forcing full internal H chroma due to input having non subsampled chroma
[auto_scale_0 @ 000001ce7fa8cc40] w:240 h:135 fmt:rgba sar:11811/11811 -> w:240 h:135 fmt:bgra sar:1/1 flags:0x0
[swscaler @ 000001ce7fb62780] [swscaler @ 000001ce7fb72780] Forcing full internal H chroma due to input having non subsampled chroma
[swscaler @ 000001ce7fb62780] [swscaler @ 000001ce7fb86780] Forcing full internal H chroma due to input having non subsampled chroma
[swscaler @ 000001ce7fb62780] [swscaler @ 000001ce7fb997c0] Forcing full internal H chroma due to input having non subsampled chroma
[swscaler @ 000001ce7fb62780] [swscaler @ 000001ce7fbac7c0] Forcing full internal H chroma due to input having non subsampled chroma
[swscaler @ 000001ce7fb62780] [swscaler @ 000001ce7fbc6100] Forcing full internal H chroma due to input having non subsampled chroma
[swscaler @ 000001ce7fb62780] [swscaler @ 000001ce7fbd9100] Forcing full internal H chroma due to input having non subsampled chroma
[swscaler @ 000001ce7fb62780] [swscaler @ 000001ce7fbec140] Forcing full internal H chroma due to input having non subsampled chroma
[swscaler @ 000001ce7fb62780] [swscaler @ 000001ce7fbff140] Forcing full internal H chroma due to input having non subsampled chroma
[swscaler @ 000001ce7fb62780] [swscaler @ 000001ce7fc12180] Forcing full internal H chroma due to input having non subsampled chroma
[auto_scale_1 @ 000001ce7f9e5380] w:16 h:16 fmt:bgra sar:1/1 -> w:16 h:16 fmt:rgba sar:1/1 flags:0x0
cur_dts is invalid st:0 (0) [init:0 i_done:0 finish:0] (this is harmless if it occurs once at the start per stream)
    Last message repeated 3 times
[Parsed_palettegen_0 @ 000001ce7f1e75c0] 11(+1) colors generated out of 11 colors; ratio=1.000000
[Parsed_palettegen_0 @ 000001ce7f1e75c0] Dupped color: FF000000
[Parsed_palettegen_0 @ 000001ce7f1e75c0] Dupped color: FFF6F7D9
cur_dts is invalid st:0 (0) [init:0 i_done:0 finish:0] (this is harmless if it occurs once at the start per stream)
Output #0, image2, to 'C:/Users/USER/Desktop/Dibujines/Game Jam Shit/Sprites/Run/palette.png':
  Metadata:
    encoder         : Lavf59.5.100
  Stream #0:0, 0, 1/8: Video: png, 1 reference frame, rgba(pc, gbr/unknown/unknown, progressive), 16x16 (0x0) [SAR 1:1 DAR 1:1], 0/1, q=2-31, 200 kb/s, 8 fps, 8 tbn
    Metadata:
      encoder         : Lavc59.9.100 png
Clipping frame in rate conversion by 0.000008
frame=    1 fps=0.0 q=0.0 size=N/A time=00:00:00.00 bitrate=N/A speed=   0x    cur_dts is invalid st:0 (0) [init:1 i_done:0 finish:0] (this is harmless if it occurs once at the start per stream)
[out_0_0 @ 000001ce7fa8c300] EOF on sink link out_0_0:default.
No more output streams to write to, finishing.
[image2 @ 000001ce7f948940] Opening 'C:/Users/USER/Desktop/Dibujines/Game Jam Shit/Sprites/Run/palette.png' for writing
[file @ 000001ce7f9e5880] Setting default whitelist 'file,crypto,data'
[AVIOContext @ 000001ce7f9b8800] Statistics: 0 seeks, 1 writeouts
frame=    1 fps=0.0 q=-0.0 Lsize=N/A time=00:00:00.12 bitrate=N/A speed=7.69x    
[AVIOContext @ 000001ce7f93d7c0] Statistics: 0 seeks, 2 writeouts
video:0kB audio:0kB subtitle:0kB other streams:0kB global headers:0kB muxing overhead: unknown
Input file #0 (C:/Users/USER/Desktop/Dibujines/Game Jam Shit/Sprites/Run/frame%04d.png):
  Input stream #0:0 (video): 4 packets read (11380 bytes); 4 frames decoded; 
  Total: 4 packets (11380 bytes) demuxed
Output file #0 (C:/Users/USER/Desktop/Dibujines/Game Jam Shit/Sprites/Run/palette.png):
  Output stream #0:0 (video): 1 frames encoded; 1 packets muxed (142 bytes); 
  Total: 1 packets (142 bytes) muxed
4 frames successfully decoded, 0 decoding errors
